#!OML:ASF H:\Terrain\Patient Classification 1\Takeo\Monday\TakeoMonday.ASF
:FULLY-SPECIFIED
:DEGREES
267
root 10.1755 17.0612 23.5512 -4.52702 -8.17456 2.61808
lowerback 8.73403 1.60038 0.15156
upperback 2.64288 2.08349 -1.84878
thorax -2.08088 1.03945 -2.20952
lowerneck -12.6309 1.40408 -1.41633
upperneck -3.77378 2.05642 -1.69935
head 0.927654 1.00434 -0.200069
rclavicle 4.21175e-015 -2.64384e-014
rhumerus -20.6505 15.1361 -85.7483
rradius 64.6921
rwrist -22.7411
rhand -31.6458 25.3781
rfingers 7.12502
rthumb -4.90668 -4.54513
lclavicle 4.21175e-015 -2.64384e-014
lhumerus -47.3835 24.4568 68.8007
lradius 17.8922
lwrist 13.9846
lhand -23.5493 24.4734
lfingers 7.12502
lthumb 2.91259 54.4333
rfemur 1.05653 7.78781 19.1832
rtibia 68.6771
rfoot 13.3648 -14.5492
rtoes -24.2828
lfemur -24.0767 2.50217 -27.8838
ltibia 44.4359
lfoot -15.1053 9.87061
ltoes 0.118618
268
root 10.1943 17.1161 23.7929 -4.66712 -7.92583 2.75913
lowerback 8.52031 1.43148 0.283425
upperback 2.79721 1.87225 -1.94003
thorax -1.80399 0.937524 -2.34671
lowerneck -12.2802 1.63659 -1.06117
upperneck -3.91631 2.31085 -2.30645
head 0.835846 1.11896 -0.440853
rclavicle -2.21024e-014 -1.59028e-015
rhumerus -21.4563 15.6556 -86.4617
rradius 63.5028
rwrist -23.2705
rhand -32.3229 24.8819
rfingers 7.12502
rthumb -5.56049 -5.02513
lclavicle -2.21024e-014 -1.59028e-015
lhumerus -46.222 23.9863 70.0848
lradius 18.7519
lwrist 15.0405
lhand -22.7607 25.4305
lfingers 7.12502
lthumb 3.67421 55.3786
rfemur -0.800437 7.56906 18.9668
rtibia 70.8132
rfoot 11.2092 -16.0582
rtoes -22.6096
lfemur -22.6094 2.18213 -28.2081
ltibia 43.7692
lfoot -15.8037 9.84596
ltoes 1.36377
269
root 10.2087 17.1686 24.0379 -4.9057 -7.85792 3.34804
lowerback 8.34934 1.38346 -0.0893691
upperback 2.92552 1.77745 -2.12896
thorax -1.58635 0.892114 -2.31565
lowerneck -12.6012 1.67422 -1.00461
upperneck -3.42236 2.37275 -2.55588
head 1.05602 1.13533 -0.521246
rclavicle -2.3233e-015 -1.17283e-014
rhumerus -22.2251 15.975 -87.1071
rradius 61.9542
rwrist -23.1076
rhand -32.6779 24.9168
rfingers 7.12502
rthumb -5.90324 -4.98092
lclavicle -2.3233e-015 -1.17283e-014
lhumerus -44.899 23.215 71.4763
lradius 19.6102
lwrist 16.2851
lhand -22.3315 25.8402
lfingers 7.12502
lthumb 4.08869 55.7807
rfemur -2.58435 7.47627 18.1961
rtibia 72.6141
rfoot 9.16279 -17.1946
rtoes -21.5316
lfemur -21.0378 2.22699 -29.0588
ltibia 43.1278
lfoot -16.4813 10.1137
ltoes -2.04174
270
root 10.214 17.2145 24.2655 -4.91438 -7.86144 3.61583
lowerback 8.25547 1.36138 -0.285491
upperback 2.91272 1.73192 -2.20763
thorax -1.55289 0.869157 -2.27989
lowerneck -12.5134 1.70224 -1.34769
upperneck -3.26471 2.45542 -2.24411
head 1.08268 1.18519 -0.361958
rclavicle 1.0312e-015 3.18055e-015
rhumerus -23.0073 16.0076 -87.745
rradius 60.387
rwrist -22.3476
rhand -32.0081 26.4534
rfingers 7.12502
rthumb -5.25655 -3.46137
lclavicle 1.0312e-015 3.18055e-015
lhumerus -43.4702 22.2709 72.8265
lradius 20.3314
lwrist 17.5962
lhand -22.8733 24.7655
lfingers 7.12502
lthumb 3.56542 54.7154
rfemur -4.67575 7.56979 17.9194
rtibia 74.182
rfoot 7.35166 -18.4085
rtoes -19.7197
lfemur -19.9064 2.36948 -29.4836
ltibia 42.6844
lfoot -17.0571 10.2433
ltoes -4.20945
271
root 10.2082 17.2476 24.4534 -4.59312 -8.05709 2.65326
lowerback 8.58926 1.34051 0.561309
upperback 2.67727 1.772 -1.96651
thorax -1.96074 0.885815 -2.52521
lowerneck -12.3536 1.59169 -1.34209
upperneck -3.14577 2.30603 -2.08854
head 1.09124 1.11357 -0.321801
rclavicle -2.0363e-014 3.77691e-015
rhumerus -23.993 15.8675 -88.4828
rradius 59.0847
rwrist -21.5639
rhand -32.6962 24.4565
rfingers 7.12502
rthumb -5.92087 -5.44082
lclavicle -2.0363e-014 3.77691e-015
lhumerus -42.1881 20.7587 74.3522
lradius 21.3961
lwrist 19.4973
lhand -23.5338 24.0123
lfingers 7.12502
lthumb 2.92764 53.9719
rfemur -7.28071 8.01653 19.299
rtibia 75.5144
rfoot 6.11949 -19.7429
rtoes -17.8631
lfemur -19.1614 2.49556 -28.4634
ltibia 41.986
lfoot -17.1237 10.3312
ltoes -5.03945
272
root 10.2008 17.2845 24.6422 -4.51245 -8.4083 1.54736
lowerback 9.14327 1.35315 1.52569
upperback 2.55494 1.88214 -1.63315
thorax -2.36757 0.933527 -2.75419
lowerneck -12.385 1.48963 -1.49322
upperneck -2.85054 2.19683 -1.96005
head 1.18893 1.0592 -0.259473
rclavicle -2.62147e-014 -6.55989e-015
rhumerus -24.9571 15.7376 -89.0698
rradius 57.7102
rwrist -20.6974
rhand -32.8026 22.85
rfingers 7.12502
rthumb -6.02361 -7.04439
lclavicle -2.62147e-014 -6.55989e-015
lhumerus -41.1067 19.2216 75.9866
lradius 22.9154
lwrist 21.6397
lhand -23.9141 24.1569
lfingers 7.12502
lthumb 2.56032 54.1213
rfemur -9.62384 8.6211 20.8548
rtibia 76.605
rfoot 4.99615 -20.6672
rtoes -16.6046
lfemur -18.3231 2.5523 -27.2392
ltibia 41.7233
lfoot -17.5861 10.4603
ltoes -5.30246
273
root 10.2259 17.3477 24.9715 -6.07068 -8.02337 3.86757
lowerback 8.56237 1.32479 -0.360295
upperback 3.46346 1.68138 -2.22108
thorax -1.15677 0.847454 -2.24634
lowerneck -12.2404 1.6491 -1.77641
upperneck -2.83615 2.44532 -2.12703
head 1.16751 1.18208 -0.25374
rclavicle -7.26806e-015 -4.37326e-015
rhumerus -25.5137 16.1046 -89.4912
rradius 56.1931
rwrist -20.7138
rhand -32.3664 23.4892
rfingers 7.12502
rthumb -5.60245 -6.41671
lclavicle -7.26806e-015 -4.37326e-015
lhumerus -39.6998 18.4582 77.4634
lradius 24.1552
lwrist 23.0427
lhand -23.8644 23.8954
lfingers 7.12502
lthumb 2.60836 53.8592
rfemur -9.2392 8.2782 18.1232
rtibia 77.206
rfoot 3.2333 -20.1702
rtoes -18.1519
lfemur -15.1009 2.36427 -30.0454
ltibia 41.2971
lfoot -18.9994 10.8272
ltoes -4.78182
